<svg xmlns="http://www.w3.org/2000/svg" width="512" height="512" viewBox="0 0 512 512">
<defs><linearGradient id="g" x1="0" y1="0" x2="1" y2="1"><stop offset="0" stop-color="#8b6bff"/><stop offset="1" stop-color="#4a25d9"/></linearGradient></defs>
<rect width="512" height="512" fill="url(#g)"/>
<path d="M256 300 L206 384 H306 Z" fill="#fff" stroke="#fff" stroke-width="14" stroke-linejoin="round"/>
<g transform="rotate(12 256 300)">
<rect x="86" y="286" width="340" height="26" rx="13" fill="#fff"/>
<circle cx="376" cy="234" r="50" fill="#fff"/><circle cx="376.0" cy="208.0" r="10" fill="#5a36f0"/><circle cx="400.7" cy="226.0" r="10" fill="#5a36f0"/><circle cx="391.3" cy="255.0" r="10" fill="#5a36f0"/><circle cx="360.7" cy="255.0" r="10" fill="#5a36f0"/><circle cx="351.3" cy="226.0" r="10" fill="#5a36f0"/><circle cx="376" cy="234" r="7" fill="#5a36f0"/>
<polygon points="136.0,202.0 146.6,229.4 175.9,231.0 153.1,249.6 160.7,278.0 136.0,262.0 111.3,278.0 118.9,249.6 96.1,231.0 125.4,229.4" fill="#ffc53d" stroke="#ffc53d" stroke-width="8" stroke-linejoin="round"/>
</g></svg>